{
  "accessors": [
    {
      "bufferView": 2,
      "componentType": 5126,
      "count": 2359,
      "max": [
        33.775062561035156,
        7.226594924926758,
        17.24112892150879
      ],
      "min": [
        -33.403099060058594,
        -7.226603031158447,
        -16.4869441986084
      ],
      "type": "VEC3"
    },
    {
      "bufferView": 2,
      "byteOffset": 28308,
      "componentType": 5126,
      "count": 2359,
      "max": [
        0.9999337196350098,
        1.0,
        0.9999337196350098
      ],
      "min": [
        -0.9999337196350098,
        -1.0,
        -0.9999934434890747
      ],
      "type": "VEC3"
    },
    {
      "bufferView": 3,
      "componentType": 5126,
      "count": 2359,
      "max": [
        0.9999991655349731,
        0.9999922513961792,
        0.9999794363975525,
        1.0
      ],
      "min": [
        -0.9999655485153198,
        -1.0,
        -0.9999911785125732,
        1.0
      ],
      "type": "VEC4"
    },
    {
      "bufferView": 1,
      "componentType": 5126,
      "count": 2359,
      "max": [
        0.9934700727462769,
        0.9896966814994812
      ],
      "min": [
        0.0035481341183185577,
        0.018576331436634064
      ],
      "type": "VEC2"
    },
    {
      "bufferView": 1,
      "byteOffset": 18872,
      "componentType": 5126,
      "count": 2359,
      "max": [
        2.15189790725708,
        2.15189790725708
      ],
      "min": [
        -2.15189790725708,
        -2.15189790725708
      ],
      "type": "VEC2"
    },
    {
      "bufferView": 0,
      "componentType": 5125,
      "count": 7080,
      "type": "SCALAR"
    },
    {
      "bufferView": 2,
      "byteOffset": 56616,
      "componentType": 5126,
      "count": 14,
      "max": [
        33.04837417602539,
        2.105168342590332,
        16.486507415771484
      ],
      "min": [
        -32.6915168762207,
        -2.105166435241699,
        -15.771652221679688
      ],
      "type": "VEC3"
    },
    {
      "bufferView": 2,
      "byteOffset": 56784,
      "componentType": 5126,
      "count": 14,
      "max": [
        -0.006509456783533096,
        -0.9929568767547607,
        -0.11051168292760849
      ],
      "min": [
        -0.006619120482355356,
        -0.9938529133796692,
        -0.11829745024442673
      ],
      "type": "VEC3"
    },
    {
      "bufferView": 3,
      "byteOffset": 37744,
      "componentType": 5126,
      "count": 14,
      "max": [
        0.9999041557312012,
        -0.007909153588116169,
        0.011367253959178925,
        1.0
      ],
      "min": [
        0.9999039769172668,
        -0.007926588878035545,
        0.011365119367837906,
        1.0
      ],
      "type": "VEC4"
    },
    {
      "bufferView": 1,
      "byteOffset": 37744,
      "componentType": 5126,
      "count": 14,
      "max": [
        0.774239718914032,
        0.594781756401062
      ],
      "min": [
        0.04580172896385193,
        0.2350732386112213
      ],
      "type": "VEC2"
    },
    {
      "bufferView": 1,
      "byteOffset": 37856,
      "componentType": 5126,
      "count": 14,
      "max": [
        0.982421875,
        0.9895858764648438
      ],
      "min": [
        0.6767578125,
        0.365234375
      ],
      "type": "VEC2"
    },
    {
      "bufferView": 0,
      "byteOffset": 28320,
      "componentType": 5125,
      "count": 30,
      "type": "SCALAR"
    }
  ],
  "asset": {
    "extras": {
      "author": "MaX3Dd (https://sketchfab.com/MaX3Dd)",
      "license": "CC-BY-4.0 (http://creativecommons.org/licenses/by/4.0/)",
      "source": "https://sketchfab.com/3d-models/hanging-monitor-1bcb147db4914410a02e4a134f9bf870",
      "title": "Hanging Monitor"
    },
    "generator": "Sketchfab-16.39.0",
    "version": "2.0"
  },
  "bufferViews": [
    {
      "buffer": 0,
      "byteLength": 28440,
      "name": "floatBufferViews",
      "target": 34963
    },
    {
      "buffer": 0,
      "byteLength": 37968,
      "byteOffset": 28440,
      "byteStride": 8,
      "name": "floatBufferViews",
      "target": 34962
    },
    {
      "buffer": 0,
      "byteLength": 56952,
      "byteOffset": 66408,
      "byteStride": 12,
      "name": "floatBufferViews",
      "target": 34962
    },
    {
      "buffer": 0,
      "byteLength": 37968,
      "byteOffset": 123360,
      "byteStride": 16,
      "name": "floatBufferViews",
      "target": 34962
    }
  ],
  "buffers": [
    {
      "byteLength": 161328,
      "uri": "scene.bin"
    }
  ],
  "images": [
    {
      "uri": "textures/hanging_monitor_baseColor.png"
    },
    {
      "uri": "textures/hanging_monitor_metallicRoughness.png"
    },
    {
      "uri": "textures/hanging_monitor_normal.png"
    }
  ],
  "materials": [
    {
      "doubleSided": true,
      "name": "hanging_monitor",
      "normalTexture": {
        "index": 2
      },
      "occlusionTexture": {
        "index": 1
      },
      "pbrMetallicRoughness": {
        "baseColorTexture": {
          "index": 0
        },
        "metallicRoughnessTexture": {
          "index": 1
        }
      }
    }
  ],
  "meshes": [
    {
      "name": "monitor_hanging_monitor_0",
      "primitives": [
        {
          "attributes": {
            "NORMAL": 1,
            "POSITION": 0,
            "TANGENT": 2,
            "TEXCOORD_0": 3,
            "TEXCOORD_1": 4
          },
          "indices": 5,
          "material": 0,
          "mode": 4
        }
      ]
    },
    {
      "name": "screen_hanging_monitor_0",
      "primitives": [
        {
          "attributes": {
            "NORMAL": 7,
            "POSITION": 6,
            "TANGENT": 8,
            "TEXCOORD_0": 9,
            "TEXCOORD_1": 10
          },
          "indices": 11,
          "material": 0,
          "mode": 4
        }
      ]
    }
  ],
  "nodes": [
    {
      "children": [
        1
      ],
      "matrix": [
        1.0,
        0.0,
        0.0,
        0.0,
        0.0,
        2.220446049250313e-16,
        -1.0,
        0.0,
        0.0,
        1.0,
        2.220446049250313e-16,
        0.0,
        0.0,
        0.0,
        0.0,
        1.0
      ],
      "name": "Sketchfab_model"
    },
    {
      "children": [
        2
      ],
      "matrix": [
        0.009999999776482582,
        0.0,
        0.0,
        0.0,
        0.0,
        0.0,
        0.009999999776482582,
        0.0,
        0.0,
        -0.009999999776482582,
        0.0,
        0.0,
        0.0,
        0.0,
        0.0,
        1.0
      ],
      "name": "hanging_monitor.fbx"
    },
    {
      "children": [
        3,
        5
      ],
      "name": "RootNode"
    },
    {
      "children": [
        4
      ],
      "matrix": [
        1.0,
        0.0,
        0.0,
        0.0,
        0.0,
        2.220446049250313e-16,
        -1.0,
        0.0,
        0.0,
        1.0,
        2.220446049250313e-16,
        0.0,
        0.0,
        16.501914978027344,
        7.152557373046875e-07,
        1.0
      ],
      "name": "monitor"
    },
    {
      "mesh": 0,
      "name": "monitor_hanging_monitor_0"
    },
    {
      "children": [
        6
      ],
      "matrix": [
        1.0,
        0.0,
        0.0,
        0.0,
        0.0,
        2.220446049250313e-16,
        -1.0,
        0.0,
        0.0,
        1.0,
        2.220446049250313e-16,
        0.0,
        -0.009962081909179688,
        16.586673736572266,
        4.830850601196289,
        1.0
      ],
      "name": "screen"
    },
    {
      "mesh": 1,
      "name": "screen_hanging_monitor_0"
    }
  ],
  "samplers": [
    {
      "magFilter": 9729,
      "minFilter": 9987,
      "wrapS": 10497,
      "wrapT": 10497
    }
  ],
  "scene": 0,
  "scenes": [
    {
      "name": "Sketchfab_Scene",
      "nodes": [
        0
      ]
    }
  ],
  "textures": [
    {
      "sampler": 0,
      "source": 0
    },
    {
      "sampler": 0,
      "source": 1
    },
    {
      "sampler": 0,
      "source": 2
    }
  ]
}
