{
  "accessors": [
    {
      "bufferView": 2,
      "componentType": 5126,
      "count": 4329,
      "max": [
        11.991459846496582,
        11.995450019836426,
        11.997360229492188
      ],
      "min": [
        -11.991459846496582,
        -11.99547004699707,
        -11.997380256652832
      ],
      "type": "VEC3"
    },
    {
      "bufferView": 2,
      "byteOffset": 51948,
      "componentType": 5126,
      "count": 4329,
      "max": [
        0.9995500445365906,
        0.9999113082885742,
        0.9992676973342896
      ],
      "min": [
        -0.9992984533309937,
        -0.9999111890792847,
        -0.9992675185203552
      ],
      "type": "VEC3"
    },
    {
      "bufferView": 1,
      "componentType": 5126,
      "count": 4329,
      "max": [
        0.9850865006446838,
        0.8807433247566223
      ],
      "min": [
        0.008413580246269703,
        0.045516420155763626
      ],
      "type": "VEC2"
    },
    {
      "bufferView": 0,
      "componentType": 5125,
      "count": 22128,
      "type": "SCALAR"
    }
  ],
  "asset": {
    "extras": {
      "author": "local.yany (https://sketchfab.com/local.yany)",
      "license": "CC-BY-4.0 (http://creativecommons.org/licenses/by/4.0/)",
      "source": "https://sketchfab.com/3d-models/bowling-ball-e66623ee44054224ace88b09ba640c28",
      "title": "Bowling Ball"
    },
    "generator": "Sketchfab-16.16.0",
    "version": "2.0"
  },
  "bufferViews": [
    {
      "buffer": 0,
      "byteLength": 88512,
      "name": "floatBufferViews",
      "target": 34963
    },
    {
      "buffer": 0,
      "byteLength": 34632,
      "byteOffset": 88512,
      "byteStride": 8,
      "name": "floatBufferViews",
      "target": 34962
    },
    {
      "buffer": 0,
      "byteLength": 103896,
      "byteOffset": 123144,
      "byteStride": 12,
      "name": "floatBufferViews",
      "target": 34962
    }
  ],
  "buffers": [
    {
      "byteLength": 227040,
      "uri": "scene.bin"
    }
  ],
  "images": [
    {
      "uri": "textures/ball_baseColor.jpeg"
    }
  ],
  "materials": [
    {
      "doubleSided": true,
      "name": "ball",
      "pbrMetallicRoughness": {
        "baseColorTexture": {
          "index": 0
        },
        "metallicFactor": 0.0,
        "roughnessFactor": 0.0
      }
    }
  ],
  "meshes": [
    {
      "name": "ball.Shape_ball_0",
      "primitives": [
        {
          "attributes": {
            "NORMAL": 1,
            "POSITION": 0,
            "TEXCOORD_0": 2
          },
          "indices": 3,
          "material": 0,
          "mode": 4
        }
      ]
    }
  ],
  "nodes": [
    {
      "children": [
        1
      ],
      "matrix": [
        1.0,
        0.0,
        0.0,
        0.0,
        0.0,
        2.220446049250313e-16,
        -1.0,
        0.0,
        0.0,
        1.0,
        2.220446049250313e-16,
        0.0,
        0.0,
        0.0,
        0.0,
        1.0
      ],
      "name": "Sketchfab_model"
    },
    {
      "children": [
        2
      ],
      "matrix": [
        0.009999999776482582,
        0.0,
        0.0,
        0.0,
        0.0,
        0.0,
        0.009999999776482582,
        0.0,
        0.0,
        -0.009999999776482582,
        0.0,
        0.0,
        0.0,
        0.0,
        0.0,
        1.0
      ],
      "name": "Bowling Ball.fbx"
    },
    {
      "children": [
        3
      ],
      "name": "RootNode"
    },
    {
      "children": [
        4
      ],
      "name": "ball"
    },
    {
      "children": [
        5
      ],
      "name": "ball.Shape"
    },
    {
      "mesh": 0,
      "name": "ball.Shape_ball_0"
    }
  ],
  "samplers": [
    {
      "magFilter": 9729,
      "minFilter": 9987,
      "wrapS": 10497,
      "wrapT": 10497
    }
  ],
  "scene": 0,
  "scenes": [
    {
      "name": "Sketchfab_Scene",
      "nodes": [
        0
      ]
    }
  ],
  "textures": [
    {
      "sampler": 0,
      "source": 0
    }
  ]
}
