{
  "accessors": [
    {
      "bufferView": 2,
      "componentType": 5126,
      "count": 8975,
      "max": [
        1.1955797672271729,
        1.1955797672271729,
        3.4388856887817383
      ],
      "min": [
        -1.1955797672271729,
        -1.1955797672271729,
        -3.724895477294922
      ],
      "type": "VEC3"
    },
    {
      "bufferView": 2,
      "byteOffset": 107700,
      "componentType": 5126,
      "count": 8975,
      "max": [
        0.9999998807907104,
        0.9999998807907104,
        1.0
      ],
      "min": [
        -0.9999998807907104,
        -0.9999998807907104,
        -1.0
      ],
      "type": "VEC3"
    },
    {
      "bufferView": 1,
      "componentType": 5126,
      "count": 8975,
      "max": [
        0.978643536567688,
        0.9781306385993958
      ],
      "min": [
        0.09818172454833984,
        0.01632116548717022
      ],
      "type": "VEC2"
    },
    {
      "bufferView": 0,
      "componentType": 5125,
      "count": 47472,
      "type": "SCALAR"
    }
  ],
  "asset": {
    "extras": {
      "author": "farooq.smurf (https://sketchfab.com/farooq.smurf)",
      "license": "CC-BY-4.0 (http://creativecommons.org/licenses/by/4.0/)",
      "source": "https://sketchfab.com/3d-models/bowling-pin-3c740bc9605b46448bec3038830b4d3c",
      "title": "Bowling Pin"
    },
    "generator": "Sketchfab-15.65.0",
    "version": "2.0"
  },
  "bufferViews": [
    {
      "buffer": 0,
      "byteLength": 189888,
      "name": "floatBufferViews",
      "target": 34963
    },
    {
      "buffer": 0,
      "byteLength": 71800,
      "byteOffset": 189888,
      "byteStride": 8,
      "name": "floatBufferViews",
      "target": 34962
    },
    {
      "buffer": 0,
      "byteLength": 215400,
      "byteOffset": 261688,
      "byteStride": 12,
      "name": "floatBufferViews",
      "target": 34962
    }
  ],
  "buffers": [
    {
      "byteLength": 477088,
      "uri": "scene.bin"
    }
  ],
  "extensionsUsed": [
    "KHR_materials_emissive_strength",
    "KHR_materials_clearcoat"
  ],
  "images": [
    {
      "uri": "textures/Material_baseColor.png"
    },
    {
      "uri": "textures/Material_metallicRoughness.png"
    }
  ],
  "materials": [
    {
      "doubleSided": true,
      "extensions": {
        "KHR_materials_clearcoat": {
          "clearcoatFactor": 1.0,
          "clearcoatRoughnessFactor": 0.15
        },
        "KHR_materials_emissive_strength": {
          "emissiveStrength": 1.569528592849045
        }
      },
      "name": "Material",
      "pbrMetallicRoughness": {
        "baseColorTexture": {
          "index": 0
        },
        "metallicFactor": 0.1,
        "metallicRoughnessTexture": {
          "index": 1
        }
      }
    }
  ],
  "meshes": [
    {
      "name": "Plane_Material_0",
      "primitives": [
        {
          "attributes": {
            "NORMAL": 1,
            "POSITION": 0,
            "TEXCOORD_0": 2
          },
          "indices": 3,
          "material": 0,
          "mode": 4
        }
      ]
    }
  ],
  "nodes": [
    {
      "children": [
        1
      ],
      "matrix": [
        1.0,
        0.0,
        0.0,
        0.0,
        0.0,
        2.220446049250313e-16,
        -1.0,
        0.0,
        0.0,
        1.0,
        2.220446049250313e-16,
        0.0,
        0.0,
        0.0,
        0.0,
        1.0
      ],
      "name": "Sketchfab_model"
    },
    {
      "children": [
        2
      ],
      "matrix": [
        0.009999999776482582,
        0.0,
        0.0,
        0.0,
        0.0,
        0.0,
        0.009999999776482582,
        0.0,
        0.0,
        -0.009999999776482582,
        0.0,
        0.0,
        0.0,
        0.0,
        0.0,
        1.0
      ],
      "name": "f8bc4650cbc14dbf8add8754651e790e.fbx"
    },
    {
      "children": [
        3,
        5,
        7,
        10,
        13,
        16
      ],
      "name": "RootNode"
    },
    {
      "children": [
        4
      ],
      "matrix": [
        100.0,
        0.0,
        0.0,
        0.0,
        -0.0,
        -1.629206793918314e-05,
        -99.99999999999868,
        0.0,
        0.0,
        99.99999999999868,
        -1.629206793918314e-05,
        0.0,
        -2.829125833159196e-06,
        377.7991638183594,
        3.846848358080024e-06,
        1.0
      ],
      "name": "Plane"
    },
    {
      "mesh": 0,
      "name": "Plane_Material_0"
    },
    {
      "children": [
        6
      ],
      "matrix": [
        8.34601954015992e-05,
        0.0,
        -428.6446533203044,
        0.0,
        4.30727541021359e-12,
        428.6446533203125,
        8.386574863148636e-19,
        0.0,
        428.6446533203044,
        -4.307275410213671e-12,
        8.34601954015992e-05,
        0.0,
        -34.6757698059082,
        351.6446228027344,
        1995.28173828125,
        1.0
      ],
      "name": "Camera"
    },
    {
      "name": "Object_6"
    },
    {
      "children": [
        8
      ],
      "matrix": [
        0.00013293963676027466,
        -682.7669677734223,
        -5.6536631690103216e-05,
        0.0,
        682.766967773404,
        0.00013293965070790905,
        -0.00016824417667043434,
        0.0,
        6.518516369795147e-05,
        -2.1904753484461933e-05,
        264.5338134765536,
        0.0,
        307.9649963378906,
        277.14776611328125,
        0.0,
        1.0
      ],
      "name": "Area"
    },
    {
      "children": [
        9
      ],
      "matrix": [
        1.0,
        0.0,
        0.0,
        0.0,
        0.0,
        2.220446049250313e-16,
        1.0,
        0.0,
        0.0,
        -1.0,
        2.220446049250313e-16,
        0.0,
        0.0,
        0.0,
        0.0,
        1.0
      ],
      "name": "Object_8"
    },
    {
      "name": "Object_9"
    },
    {
      "children": [
        11
      ],
      "matrix": [
        0.0003771161323829173,
        682.7669677733311,
        5.653662198740102e-05,
        0.0,
        -682.7669677733292,
        0.00037711613875031564,
        -7.650840218868503e-05,
        0.0,
        -2.9642716490238333e-05,
        -2.1904746044522244e-05,
        264.53381347655994,
        0.0,
        -319.16375732421875,
        277.14776611328125,
        0.0,
        1.0
      ],
      "name": "Area.001"
    },
    {
      "children": [
        12
      ],
      "matrix": [
        1.0,
        0.0,
        0.0,
        0.0,
        0.0,
        2.220446049250313e-16,
        1.0,
        0.0,
        0.0,
        -1.0,
        2.220446049250313e-16,
        0.0,
        0.0,
        0.0,
        0.0,
        1.0
      ],
      "name": "Object_11"
    },
    {
      "name": "Object_12"
    },
    {
      "children": [
        14
      ],
      "matrix": [
        682.7669677734119,
        0.0001627843109086179,
        9.173579873850638e-05,
        0.0,
        -0.00016278430342227178,
        682.7669677734158,
        -5.5719038341972365e-05,
        0.0,
        -6.151424232804943e-05,
        3.736286850097817e-05,
        457.83529663085375,
        0.0,
        -2.384185791015625e-05,
        859.4814453125,
        0.0,
        1.0
      ],
      "name": "Area.002"
    },
    {
      "children": [
        15
      ],
      "matrix": [
        1.0,
        0.0,
        0.0,
        0.0,
        0.0,
        2.220446049250313e-16,
        1.0,
        0.0,
        0.0,
        -1.0,
        2.220446049250313e-16,
        0.0,
        0.0,
        0.0,
        0.0,
        1.0
      ],
      "name": "Object_14"
    },
    {
      "name": "Object_15"
    },
    {
      "children": [
        17
      ],
      "matrix": [
        0.0003771161323829173,
        682.7669677733325,
        -3.66466404168736e-05,
        0.0,
        -299.0525955062893,
        0.00019812163129540505,
        613.7901601924127,
        0.0,
        237.80915729541633,
        -0.00012513137273513896,
        115.86605706107828,
        0.0,
        -190.37838745117188,
        277.14776611328125,
        350.79095458984375,
        1.0
      ],
      "name": "Area.003"
    },
    {
      "children": [
        18
      ],
      "matrix": [
        1.0,
        0.0,
        0.0,
        0.0,
        0.0,
        2.220446049250313e-16,
        1.0,
        0.0,
        0.0,
        -1.0,
        2.220446049250313e-16,
        0.0,
        0.0,
        0.0,
        0.0,
        1.0
      ],
      "name": "Object_17"
    },
    {
      "name": "Object_18"
    }
  ],
  "samplers": [
    {
      "magFilter": 9729,
      "minFilter": 9987,
      "wrapS": 10497,
      "wrapT": 10497
    }
  ],
  "scene": 0,
  "scenes": [
    {
      "name": "Sketchfab_Scene",
      "nodes": [
        0
      ]
    }
  ],
  "textures": [
    {
      "sampler": 0,
      "source": 0
    },
    {
      "sampler": 0,
      "source": 1
    }
  ]
}
